<svg width="375" height="515" viewBox="0 0 375 515" fill="none" xmlns="http://www.w3.org/2000/svg">
<path d="M94.8198 206.278C109.132 180.98 134.666 169.623 163.043 176.079C175.169 178.838 183.439 187.53 188.968 196.935C193.566 204.756 196.756 213.857 199.008 222.653C202.474 215.166 206.779 207.625 212.079 201.282C218.919 193.096 228.217 185.983 240.25 184.828C267.879 182.176 292.549 193.813 305.034 220.303C310.624 232.167 308.203 244.206 303.235 254.224C298.399 263.977 290.643 272.965 282.927 280.423C293.417 279.521 305.028 279.581 315.334 282.273C326.055 285.074 336.64 291.124 341.807 303.105C353.512 330.244 345.077 356.601 324.55 375.233C315.599 383.359 304.078 385.459 293.415 385.019C285.258 384.682 276.89 382.843 269.099 380.422C274.476 388.437 279.454 397.471 282.309 406.689C285.615 417.361 286.445 429.59 280.047 440.589C265.474 465.643 240.377 476.703 212.059 470.703C199.579 468.059 191.056 459.209 185.359 449.563C180.376 441.128 176.998 431.2 174.667 421.694C170.851 429.994 166.036 438.427 160.03 445.32C152.813 453.604 143.007 460.613 130.46 461.042C103.448 461.964 80.2092 449.782 68.884 423.54C63.7617 411.67 66.4627 399.851 71.5889 390.089C76.6704 380.412 84.6785 371.594 92.5505 364.355C93.2214 363.738 93.897 363.131 94.5719 362.53C94.0041 362.551 93.4341 362.571 92.8624 362.587C82.3074 362.882 70.65 362.353 60.2684 359.805C50.0973 357.308 39.4255 352.438 33.2882 342.655C24.1307 328.059 20.6112 313.526 23.681 300.109C26.7632 286.638 36.036 276.264 48.4177 269.135C56.5757 264.438 67.475 264.126 77.0959 264.947C87.2299 265.813 98.2775 268.182 108.292 270.845C108.865 270.998 109.437 271.152 110.005 271.306C109.42 270.513 108.834 269.71 108.256 268.897C102.087 260.225 96.0722 250.028 92.8113 239.572C89.5541 229.127 88.6795 217.132 94.8198 206.278Z" fill="url(#paint0_linear_788_40)" stroke="white" stroke-width="20"/>
<path d="M241.027 28.1017C257.138 29.4245 269.081 39.8748 272.451 55.721C274.099 63.4742 271.202 70.2732 267.795 75.1881C267.214 76.026 266.594 76.8398 265.949 77.6324C266.503 77.7559 267.056 77.8885 267.604 78.0362C273.246 79.5558 279.66 82.7394 283.524 89.3509C291.178 102.448 291.188 117.895 280.631 130.498C275.222 136.955 267.687 138.549 261.431 138.377C259.49 138.324 257.544 138.103 255.631 137.763C256.206 139.499 256.68 141.277 257.003 143.075C258.102 149.197 257.643 156.858 252.033 163.121C240.907 175.54 225.317 177.3 211.414 171.41C204.364 168.424 200.383 162.471 198.151 157.07C197.969 156.631 197.799 156.186 197.634 155.74C196.756 156.696 195.839 157.618 194.878 158.485C190.333 162.579 183.814 166.37 175.756 165.611C159.735 164.102 148.071 153.811 144.497 138.158C142.692 130.249 145.613 123.278 149.097 118.231C149.841 117.153 150.647 116.112 151.493 115.107C150.554 114.906 149.622 114.675 148.702 114.406C142.903 112.716 136.364 109.21 132.769 102.085C126.124 88.9151 126.731 74.0411 137.448 62.073C142.991 55.8832 150.468 54.503 156.633 54.8153C158.974 54.9338 161.313 55.2986 163.588 55.8183C162.975 53.932 162.455 52.0076 162.079 50.079C161.017 44.6331 160.757 37.3958 164.852 31.1093C169.84 23.452 176.473 17.8986 184.651 16.1724C192.882 14.4351 200.694 16.9929 207.113 21.5301C212.175 25.1088 214.939 31.1122 216.566 35.596C217.062 36.964 217.514 38.3799 217.931 39.8174C219.267 38.1964 220.713 36.6416 222.274 35.2292C226.721 31.2065 233.107 27.4517 241.027 28.1017Z" fill="#100C51" stroke="white" stroke-width="20"/>
<defs>
<linearGradient id="paint0_linear_788_40" x1="127.555" y1="188.481" x2="246.993" y2="458.221" gradientUnits="userSpaceOnUse">
<stop stop-color="#100C51"/>
<stop offset="1" stop-color="#241BB7"/>
</linearGradient>
</defs>
</svg>
